<svg viewBox="0 0 40 39" fill="none" xmlns="http://www.w3.org/2000/svg">
<path d="M34.4625 3.25H5.5375C5.06343 3.25 4.60877 3.43833 4.27355 3.77355C3.93833 4.10877 3.75 4.56343 3.75 5.0375V33.9625C3.75 34.1972 3.79624 34.4297 3.88607 34.6465C3.9759 34.8634 4.10756 35.0605 4.27355 35.2265C4.43953 35.3924 4.63658 35.5241 4.85345 35.6139C5.07032 35.7038 5.30276 35.75 5.5375 35.75H21.105V23.1562H16.88V18.2812H21.105V14.625C21.0175 13.7666 21.1188 12.8995 21.4019 12.0844C21.685 11.2693 22.143 10.526 22.7438 9.90667C23.3445 9.28733 24.0735 8.80692 24.8796 8.49914C25.6857 8.19136 26.5493 8.06366 27.41 8.125C28.6748 8.11722 29.939 8.18232 31.1962 8.32V12.7075H28.6125C26.565 12.7075 26.175 13.6825 26.175 15.0962V18.2325H31.05L30.4163 23.1075H26.175V35.75H34.4625C34.6972 35.75 34.9297 35.7038 35.1465 35.6139C35.3634 35.5241 35.5605 35.3924 35.7265 35.2265C35.8924 35.0605 36.0241 34.8634 36.1139 34.6465C36.2038 34.4297 36.25 34.1972 36.25 33.9625V5.0375C36.25 4.80276 36.2038 4.57032 36.1139 4.35345C36.0241 4.13658 35.8924 3.93953 35.7265 3.77355C35.5605 3.60756 35.3634 3.4759 35.1465 3.38607C34.9297 3.29624 34.6972 3.25 34.4625 3.25Z" fill="white"/>
</svg>
