<svg viewBox="0 0 22 21" fill="none" xmlns="http://www.w3.org/2000/svg">
<path d="M15.84 10.1299C16.2405 10.1349 16.638 10.0596 17.009 9.90842C17.38 9.75728 17.7169 9.53337 18 9.24991L20.83 6.41991C21.0162 6.23255 21.1208 5.9791 21.1208 5.71491C21.1208 5.45073 21.0162 5.19728 20.83 5.00991C20.737 4.91618 20.6264 4.84179 20.5046 4.79102C20.3827 4.74025 20.252 4.71411 20.12 4.71411C19.988 4.71411 19.8573 4.74025 19.7354 4.79102C19.6136 4.84179 19.5029 4.91618 19.41 5.00991L16.55 7.82991C16.457 7.92364 16.3464 7.99803 16.2246 8.0488C16.1027 8.09957 15.972 8.12571 15.84 8.12571C15.708 8.12571 15.5773 8.09957 15.4554 8.0488C15.3336 7.99803 15.2229 7.92364 15.13 7.82991L18.67 4.29991C18.7632 4.20667 18.8372 4.09598 18.8876 3.97416C18.9381 3.85234 18.9641 3.72177 18.9641 3.58991C18.9641 3.45805 18.9381 3.32749 18.8876 3.20566C18.8372 3.08384 18.7632 2.97315 18.67 2.87991C18.5767 2.78667 18.4661 2.71271 18.3442 2.66225C18.2224 2.61179 18.0918 2.58582 17.96 2.58582C17.8281 2.58582 17.6976 2.61179 17.5757 2.66225C17.4539 2.71271 17.3432 2.78667 17.25 2.87991L13.72 6.41991C13.5337 6.23255 13.4292 5.9791 13.4292 5.71491C13.4292 5.45073 13.5337 5.19728 13.72 5.00991L16.55 2.17991C16.6432 2.08667 16.7172 1.97598 16.7676 1.85416C16.8181 1.73234 16.8441 1.60177 16.8441 1.46991C16.8441 1.33805 16.8181 1.20748 16.7676 1.08566C16.7172 0.963841 16.6432 0.853151 16.55 0.759912C16.4567 0.666673 16.3461 0.592713 16.2242 0.542252C16.1024 0.491792 15.9718 0.46582 15.84 0.46582C15.7081 0.46582 15.5776 0.491792 15.4557 0.542252C15.3339 0.592713 15.2232 0.666673 15.13 0.759912L12.3 3.58991C11.7382 4.15241 11.4226 4.91491 11.4226 5.70991C11.4226 6.50491 11.7382 7.26741 12.3 7.82991L11 9.11991L2.72999 0.819912L2.62999 0.759912C2.57887 0.715312 2.52162 0.678269 2.45999 0.649912L2.27999 0.579912L2.15999 0.499912H2.08999H1.88999C1.83037 0.490379 1.76961 0.490379 1.70999 0.499912C1.64945 0.521946 1.59224 0.552232 1.53999 0.589912L1.37999 0.689912H1.30999L1.24999 0.789912C1.20766 0.842711 1.17081 0.89967 1.13999 0.959912C1.1107 1.02089 1.08726 1.08451 1.06999 1.14991C1.06999 1.14991 1.06999 1.21991 1.06999 1.25991C0.827323 2.95132 0.982037 4.67601 1.52186 6.29723C2.06169 7.91844 2.97179 9.39161 4.17999 10.5999L6.81999 13.2299L1.40999 18.6299C1.31626 18.7229 1.24186 18.8335 1.1911 18.9553C1.14033 19.0772 1.11419 19.2079 1.11419 19.3399C1.11419 19.4719 1.14033 19.6026 1.1911 19.7245C1.24186 19.8463 1.31626 19.9569 1.40999 20.0499C1.50343 20.1426 1.61424 20.2159 1.73608 20.2657C1.85792 20.3154 1.98838 20.3407 2.11999 20.3399C2.25159 20.3407 2.38206 20.3154 2.50389 20.2657C2.62573 20.2159 2.73655 20.1426 2.82999 20.0499L8.89999 14.0699L11.73 11.2399L13.73 9.23991C14.288 9.80391 15.0466 10.1239 15.84 10.1299ZM8.18999 11.9499L5.55999 9.30991C4.11844 7.84865 3.21583 5.94118 2.99999 3.89991L9.60999 10.4999L8.18999 11.9499ZM14.43 12.5199C14.2417 12.3303 13.9858 12.2232 13.7185 12.2223C13.4513 12.2213 13.1946 12.3266 13.005 12.5149C12.8154 12.7032 12.7083 12.9591 12.7074 13.2264C12.7064 13.4936 12.8117 13.7503 13 13.9399L19.3 20.2399C19.491 20.4137 19.7418 20.5069 20 20.4999C20.1316 20.5007 20.2621 20.4754 20.3839 20.4257C20.5057 20.3759 20.6165 20.3026 20.71 20.2099C20.8037 20.1169 20.8781 20.0063 20.9289 19.8845C20.9796 19.7626 21.0058 19.6319 21.0058 19.4999C21.0058 19.3679 20.9796 19.2372 20.9289 19.1153C20.8781 18.9935 20.8037 18.8829 20.71 18.7899L14.43 12.5199Z"/>
</svg>
