<svg viewBox="0 0 19 21" xmlns="http://www.w3.org/2000/svg">
<path d="M17.5001 6.50001L11.5001 1.24001C10.9501 0.748051 10.238 0.476074 9.50009 0.476074C8.76216 0.476074 8.05012 0.748051 7.50009 1.24001L1.50009 6.50001C1.18246 6.78408 0.928995 7.13256 0.756567 7.52225C0.584139 7.91194 0.496707 8.33389 0.500095 8.76001V17.5C0.500095 18.2957 0.816165 19.0587 1.37877 19.6213C1.94138 20.1839 2.70445 20.5 3.50009 20.5H15.5001C16.2957 20.5 17.0588 20.1839 17.6214 19.6213C18.184 19.0587 18.5001 18.2957 18.5001 17.5V8.75001C18.5021 8.32557 18.4139 7.90555 18.2416 7.51769C18.0692 7.12983 17.8165 6.78296 17.5001 6.50001ZM11.5001 18.5H7.50009V13.5C7.50009 13.2348 7.60545 12.9804 7.79299 12.7929C7.98052 12.6054 8.23488 12.5 8.50009 12.5H10.5001C10.7653 12.5 11.0197 12.6054 11.2072 12.7929C11.3947 12.9804 11.5001 13.2348 11.5001 13.5V18.5ZM16.5001 17.5C16.5001 17.7652 16.3947 18.0196 16.2072 18.2071C16.0197 18.3946 15.7653 18.5 15.5001 18.5H13.5001V13.5C13.5001 12.7044 13.184 11.9413 12.6214 11.3787C12.0588 10.8161 11.2957 10.5 10.5001 10.5H8.50009C7.70444 10.5 6.94138 10.8161 6.37877 11.3787C5.81616 11.9413 5.50009 12.7044 5.50009 13.5V18.5H3.50009C3.23488 18.5 2.98052 18.3946 2.79299 18.2071C2.60545 18.0196 2.50009 17.7652 2.50009 17.5V8.75001C2.50027 8.60802 2.53069 8.4677 2.58931 8.33839C2.64794 8.20907 2.73343 8.09372 2.8401 8.00001L8.84009 2.75001C9.02258 2.58969 9.25719 2.50127 9.50009 2.50127C9.743 2.50127 9.97761 2.58969 10.1601 2.75001L16.1601 8.00001C16.2668 8.09372 16.3523 8.20907 16.4109 8.33839C16.4695 8.4677 16.4999 8.60802 16.5001 8.75001V17.5Z"/>
</svg>
