<svg viewBox="0 0 41 40" fill="none" xmlns="http://www.w3.org/2000/svg">
<path d="M20.5007 15.8668C19.6832 15.8668 18.884 16.1092 18.2043 16.5634C17.5246 17.0176 16.9948 17.6631 16.6819 18.4184C16.3691 19.1737 16.2873 20.0047 16.4467 20.8065C16.6062 21.6083 16.9999 22.3448 17.5779 22.9229C18.156 23.5009 18.8925 23.8946 19.6943 24.0541C20.4961 24.2136 21.3271 24.1317 22.0824 23.8189C22.8377 23.506 23.4832 22.9762 23.9374 22.2965C24.3916 21.6168 24.634 20.8177 24.634 20.0002C24.634 19.4574 24.5271 18.9199 24.3194 18.4184C24.1116 17.9169 23.8072 17.4613 23.4234 17.0775C23.0395 16.6936 22.5839 16.3892 22.0824 16.1815C21.5809 15.9737 21.0434 15.8668 20.5007 15.8668V15.8668ZM37.0507 11.7835C37.0419 10.4964 36.8049 9.22112 36.3507 8.01683C36.0161 7.1356 35.4985 6.33532 34.832 5.6688C34.1655 5.00229 33.3652 4.48469 32.484 4.15016C31.2797 3.69594 30.0044 3.45893 28.7173 3.45016C26.5673 3.3335 25.934 3.3335 20.5007 3.3335C15.0673 3.3335 14.434 3.3335 12.284 3.45016C10.9969 3.45893 9.7216 3.69594 8.51732 4.15016C7.63608 4.48469 6.83581 5.00229 6.16929 5.6688C5.50278 6.33532 4.98518 7.1356 4.65065 8.01683C4.19642 9.22112 3.95942 10.4964 3.95065 11.7835C3.83398 13.9335 3.83398 14.5668 3.83398 20.0002C3.83398 25.4335 3.83398 26.0668 3.95065 28.2168C3.96859 29.5084 4.20527 30.7877 4.65065 32.0002C4.9837 32.8774 5.50087 33.673 6.16732 34.3335C6.83097 35.004 7.63297 35.5216 8.51732 35.8502C9.7216 36.3044 10.9969 36.5414 12.284 36.5502C14.434 36.6668 15.0673 36.6668 20.5007 36.6668C25.934 36.6668 26.5673 36.6668 28.7173 36.5502C30.0044 36.5414 31.2797 36.3044 32.484 35.8502C33.3683 35.5216 34.1703 35.004 34.834 34.3335C35.5004 33.673 36.0176 32.8774 36.3507 32.0002C36.8044 30.79 37.0414 29.5093 37.0507 28.2168C37.1673 26.0668 37.1673 25.4335 37.1673 20.0002C37.1673 14.5668 37.1673 13.9335 37.0507 11.7835V11.7835ZM32.8173 25.1168C32.7638 26.1453 32.5443 27.1584 32.1673 28.1168C31.8438 28.9163 31.3628 29.6426 30.7529 30.2524C30.143 30.8623 29.4168 31.3433 28.6173 31.6668C27.6498 32.0228 26.6311 32.2198 25.6007 32.2502C24.284 32.2502 23.934 32.2502 20.5007 32.2502C17.0673 32.2502 16.7173 32.2502 15.4007 32.2502C14.3702 32.2198 13.3515 32.0228 12.384 31.6668C11.5575 31.3597 10.8111 30.8697 10.2007 30.2335C9.59676 29.6356 9.13039 28.9133 8.83398 28.1168C8.47658 27.1504 8.285 26.1305 8.26732 25.1002C8.26732 23.7835 8.26732 23.4335 8.26732 20.0002C8.26732 16.5668 8.26732 16.2168 8.26732 14.9002C8.285 13.8699 8.47658 12.85 8.83398 11.8835C9.14112 11.057 9.63111 10.3106 10.2673 9.70016C10.8679 9.09954 11.5894 8.63365 12.384 8.3335C13.3515 7.97751 14.3702 7.78051 15.4007 7.75016V7.75016C16.7173 7.75016 17.0673 7.75016 20.5007 7.75016C23.934 7.75016 24.284 7.75016 25.6007 7.75016C26.6311 7.78051 27.6498 7.97751 28.6173 8.3335C29.4438 8.64063 30.1902 9.13062 30.8007 9.76683C31.4045 10.3647 31.8709 11.0871 32.1673 11.8835C32.5233 12.851 32.7203 13.8697 32.7507 14.9002C32.7507 16.2168 32.7507 16.5668 32.7507 20.0002C32.7507 23.4335 32.8673 23.7835 32.8173 25.1002V25.1168ZM30.1507 12.7168C29.9522 12.1785 29.6393 11.6896 29.2336 11.2839C28.8279 10.8781 28.339 10.5653 27.8007 10.3668C27.0614 10.1106 26.2829 9.98648 25.5007 10.0002C24.2007 10.0002 23.834 10.0002 20.5007 10.0002C17.1673 10.0002 16.8007 10.0002 15.5007 10.0002C14.7144 10.0078 13.9358 10.1546 13.2007 10.4335C12.6705 10.6229 12.1868 10.923 11.7816 11.3138C11.3764 11.7046 11.0591 12.1772 10.8507 12.7002C10.6086 13.4424 10.4904 14.2195 10.5007 15.0002C10.5007 16.3002 10.5007 16.6668 10.5007 20.0002C10.5007 23.3335 10.5007 23.7002 10.5007 25.0002C10.5172 25.7855 10.6636 26.5627 10.934 27.3002C11.1324 27.8385 11.4453 28.3274 11.851 28.7331C12.2567 29.1389 12.7456 29.4517 13.284 29.6502C13.9951 29.9117 14.7434 30.058 15.5007 30.0835V30.0835C16.8007 30.0835 17.1673 30.0835 20.5007 30.0835C23.834 30.0835 24.2007 30.0835 25.5007 30.0835C26.2869 30.0758 27.0655 29.9291 27.8007 29.6502C28.339 29.4517 28.8279 29.1389 29.2336 28.7331C29.6393 28.3274 29.9522 27.8385 30.1507 27.3002C30.4296 26.565 30.5763 25.7864 30.584 25.0002C30.584 23.7002 30.584 23.3335 30.584 20.0002C30.584 16.6668 30.584 16.3002 30.584 15.0002C30.5845 14.2132 30.4375 13.433 30.1507 12.7002V12.7168ZM20.5007 26.3668C19.6654 26.3668 18.8383 26.202 18.0668 25.8819C17.2952 25.5617 16.5945 25.0925 16.0046 24.5011C15.4148 23.9097 14.9474 23.2077 14.6292 22.4353C14.3111 21.663 14.1485 20.8355 14.1507 20.0002V20.0002C14.1507 18.7402 14.5245 17.5087 15.2248 16.4613C15.9251 15.414 16.9204 14.5979 18.0848 14.1166C19.2491 13.6352 20.5301 13.5101 21.7655 13.7571C23.001 14.0041 24.1354 14.6121 25.0251 15.5042C25.9149 16.3962 26.5199 17.5322 26.7637 18.7683C27.0075 20.0044 26.879 21.2851 26.3946 22.4482C25.9101 23.6112 25.0915 24.6044 24.0423 25.302C22.9931 25.9995 21.7606 26.3701 20.5007 26.3668V26.3668ZM27.1673 14.8835C26.7989 14.8445 26.4579 14.6705 26.2101 14.3951C25.9623 14.1197 25.8252 13.7623 25.8252 13.3918C25.8252 13.0213 25.9623 12.664 26.2101 12.3885C26.4579 12.1131 26.7989 11.9392 27.1673 11.9002V11.9002C27.5357 11.9392 27.8767 12.1131 28.1245 12.3885C28.3723 12.664 28.5094 13.0213 28.5094 13.3918C28.5094 13.7623 28.3723 14.1197 28.1245 14.3951C27.8767 14.6705 27.5357 14.8445 27.1673 14.8835Z" fill="white"/>
</svg>
