<?xml version="1.0" encoding="UTF-8" standalone="no"?>

<svg
   version="1.1"
   id="svg9"
   viewBox="0 0 147.98358 43.596039"
   xmlns:inkscape="http://www.inkscape.org/namespaces/inkscape"
   xmlns:sodipodi="http://sodipodi.sourceforge.net/DTD/sodipodi-0.dtd"
   xmlns="http://www.w3.org/2000/svg"
   xmlns:svg="http://www.w3.org/2000/svg">
  <defs
     id="defs13">
    <clipPath
       clipPathUnits="userSpaceOnUse"
       id="clipPath10525">
      <path
         d="M 0,792 H 612 V 0 H 0 Z"
         id="path10523" />
    </clipPath>
  </defs>
  <sodipodi:namedview
     id="namedview11"
     pagecolor="#ffffff"
     bordercolor="#000000"
     borderopacity="0.25"
     inkscape:showpageshadow="2"
     inkscape:pageopacity="0.0"
     inkscape:pagecheckerboard="0"
     inkscape:deskcolor="#d1d1d1"
     showgrid="false" />
  <g
     id="g15"
     inkscape:groupmode="layer"
     inkscape:label="carta calidosas final"
     transform="matrix(1.3333333,0,0,-1.3333333,-835.16895,824.73029)">
    <g
       id="g10519"
       transform="translate(516.6894,-77.117821)">
      <g
         id="g10521"
         clip-path="url(#clipPath10525)">
        <g
           id="g10527"
           transform="translate(220.6387,671.5646)">
          <path
             d="m 0,0 c -0.009,0.028 -0.018,0.066 -0.029,0.115 -0.113,0.477 -0.379,0.918 -0.802,1.304 -3.081,2.814 -7.646,4.126 -13.435,3.913 1.018,-1.592 1.597,-2.955 1.768,-3.383 0.124,-0.311 0.376,-0.944 -4.239,-8.327 -0.085,-0.135 -0.012,-0.315 0.144,-0.346 1.644,-0.325 5.053,-0.65 9.696,0.721 4.515,1.334 6.508,3.472 6.866,5.028 C 0.047,-0.639 0.057,-0.312 0,0 m -0.549,2.891 c -0.484,3.119 -1.006,9.119 -0.248,14.671 0.226,1.66 -1.346,3.08 -2.705,3.978 -0.315,0.208 -7.892,5.046 -24.311,0.864 -5.617,-1.43 -10.928,-2.967 -16.064,-4.453 -13.366,-3.868 -25.992,-7.52 -40.913,-8.377 -3.922,-0.225 -7.584,-0.177 -10.886,0.12 -0.023,-0.002 -0.047,-0.006 -0.069,-0.005 -0.042,0.002 -0.082,0.013 -0.122,0.023 -6.422,0.599 -11.463,2.151 -14.365,4.506 0.421,-2.319 0.838,-6.389 0.653,-9.963 -0.03,-0.581 -0.131,-1.759 -0.238,-3.007 -0.107,-1.249 -0.218,-2.54 -0.242,-3.086 -0.033,-0.72 0.277,-1.446 0.872,-2.043 1.327,-1.331 7.065,-5.594 25.191,-4.553 14.688,0.843 28.411,4.768 42.94,8.924 5.525,1.58 11.238,3.214 16.968,4.649 7.323,1.835 17.24,2.885 23.539,-2.248 m -96.192,8.219 c -0.258,0.64 -0.481,1.226 -0.66,1.697 -0.102,0.268 -0.19,0.501 -0.264,0.688 -0.056,0.142 -0.061,0.299 -0.013,0.443 0.272,0.819 2.927,4.409 4.31,6.249 0.093,0.123 0.04,0.3 -0.107,0.35 -1.66,0.563 -5.255,1.449 -10.207,0.802 -3.975,-0.52 -6.662,-1.748 -7.185,-3.285 -0.078,-0.228 -0.098,-0.452 -0.076,-0.668 0.021,-0.072 0.074,-0.261 0.147,-0.551 0.169,-0.395 0.45,-0.745 0.722,-1.018 2.856,-2.865 8.193,-4.159 13.333,-4.707"
             style="fill:#fff;fill-opacity:1;fill-rule:nonzero;stroke:none"
             id="path10529" />
        </g>
      </g>
    </g>
  </g>
</svg>
