<svg viewBox="0 0 17 21" xmlns="http://www.w3.org/2000/svg">
<path d="M15.5 5.5H12.5V4.5C12.5 3.43913 12.0786 2.42172 11.3284 1.67157C10.5783 0.921427 9.56087 0.5 8.5 0.5C7.43913 0.5 6.42172 0.921427 5.67157 1.67157C4.92143 2.42172 4.5 3.43913 4.5 4.5V5.5H1.5C1.23478 5.5 0.98043 5.60536 0.792893 5.79289C0.605357 5.98043 0.5 6.23478 0.5 6.5V17.5C0.5 18.2956 0.816071 19.0587 1.37868 19.6213C1.94129 20.1839 2.70435 20.5 3.5 20.5H13.5C14.2956 20.5 15.0587 20.1839 15.6213 19.6213C16.1839 19.0587 16.5 18.2956 16.5 17.5V6.5C16.5 6.23478 16.3946 5.98043 16.2071 5.79289C16.0196 5.60536 15.7652 5.5 15.5 5.5ZM6.5 4.5C6.5 3.96957 6.71071 3.46086 7.08579 3.08579C7.46086 2.71071 7.96957 2.5 8.5 2.5C9.03043 2.5 9.53914 2.71071 9.91421 3.08579C10.2893 3.46086 10.5 3.96957 10.5 4.5V5.5H6.5V4.5ZM14.5 17.5C14.5 17.7652 14.3946 18.0196 14.2071 18.2071C14.0196 18.3946 13.7652 18.5 13.5 18.5H3.5C3.23478 18.5 2.98043 18.3946 2.79289 18.2071C2.60536 18.0196 2.5 17.7652 2.5 17.5V7.5H4.5V8.5C4.5 8.76522 4.60536 9.01957 4.79289 9.20711C4.98043 9.39464 5.23478 9.5 5.5 9.5C5.76522 9.5 6.01957 9.39464 6.20711 9.20711C6.39464 9.01957 6.5 8.76522 6.5 8.5V7.5H10.5V8.5C10.5 8.76522 10.6054 9.01957 10.7929 9.20711C10.9804 9.39464 11.2348 9.5 11.5 9.5C11.7652 9.5 12.0196 9.39464 12.2071 9.20711C12.3946 9.01957 12.5 8.76522 12.5 8.5V7.5H14.5V17.5Z"/>
</svg>
